<?xml version="1.0" encoding="iso-8859-1"?>
<!-- Uploaded to: SVG Repo, www.svgrepo.com, Generator: SVG Repo Mixer Tools -->
<!DOCTYPE svg PUBLIC "-//W3C//DTD SVG 1.1//EN" "http://www.w3.org/Graphics/SVG/1.1/DTD/svg11.dtd">
<svg fill="white" version="1.1" id="Capa_1" xmlns="http://www.w3.org/2000/svg" xmlns:xlink="http://www.w3.org/1999/xlink"  viewBox="0 0 40.863 40.863"
	 xml:space="preserve">
<g>
	<g>
		<path d="M28.707,4.905H1.633C0.733,4.905,0,5.637,0,6.54c0,0.901,0.73,1.635,1.633,1.635h27.074c2.195,0,3.98,1.786,3.98,3.98
			v27.074c0,0.9,0.731,1.633,1.635,1.633c0.902,0,1.635-0.729,1.635-1.633V12.155C35.957,8.158,32.705,4.905,28.707,4.905z"/>
		<path d="M39.227,32.689h-1.635v3.271h1.635c0.902,0,1.637-0.732,1.637-1.637C40.861,33.422,40.129,32.689,39.227,32.689z"/>
		<path d="M11.076,32.523l19.598-19.608c0.076-0.077,0.119-0.182,0.119-0.289s-0.043-0.212-0.119-0.289l-2.145-2.146
			c-0.08-0.08-0.187-0.12-0.289-0.12c-0.105,0-0.209,0.04-0.289,0.12L8.346,29.807c-0.102-0.352-0.172-0.713-0.172-1.098V9.81H4.903
			v18.899c0,3.998,3.254,7.252,7.251,7.252h18.901v-3.271H12.154C11.778,32.689,11.422,32.621,11.076,32.523z"/>
		<path d="M8.172,1.637c0-0.902-0.73-1.635-1.635-1.635c-0.902,0-1.635,0.732-1.635,1.635v1.635h3.27V1.637L8.172,1.637z"/>
		<path d="M39.932,3.485c0-0.108-0.043-0.212-0.119-0.289L37.667,1.05c-0.08-0.08-0.187-0.12-0.289-0.12s-0.209,0.04-0.289,0.12
			L33.87,4.269c-0.076,0.077-0.119,0.18-0.119,0.289c0,0.107,0.043,0.212,0.119,0.289l2.146,2.145c0.157,0.16,0.418,0.16,0.577,0
			l3.222-3.218C39.889,3.698,39.932,3.595,39.932,3.485z"/>
	</g>
</g>
</svg>