<?xml version="1.0" encoding="iso-8859-1"?>
<!-- Uploaded to: SVG Repo, www.svgrepo.com, Generator: SVG Repo Mixer Tools -->
<!DOCTYPE svg PUBLIC "-//W3C//DTD SVG 1.1//EN" "http://www.w3.org/Graphics/SVG/1.1/DTD/svg11.dtd">
<svg fill="white" version="1.1" id="Capa_1" xmlns="http://www.w3.org/2000/svg" xmlns:xlink="http://www.w3.org/1999/xlink"  viewBox="0 0 61.199 61.199"
	 xml:space="preserve">
<g>
	<g>
		<path d="M25.123,7.013c0.172,0.396,0.599,1.309,1.701,1.309h7.539c0.385,0,1.305-0.135,1.725-1.354l2.4-4.612l0.057-0.128
			c0.174-0.457,0.102-0.967-0.199-1.401C37.995,0.325,37.396,0,36.812,0H24.378c-0.584,0-1.161,0.291-1.508,0.76
			c-0.307,0.414-0.397,0.925-0.252,1.398L25.123,7.013z"/>
		<path d="M36.714,10.673v7.54c0,0.385,0.136,1.304,1.354,1.725l4.613,2.4l0.129,0.058c0.157,0.06,0.326,0.09,0.5,0.09
			c0.903,0,1.729-0.871,1.729-1.828V8.227c0-0.991-0.783-1.828-1.711-1.828c-0.149,0-0.302,0.022-0.447,0.067l-4.856,2.506
			C37.624,9.143,36.714,9.57,36.714,10.673z"/>
		<path d="M17.858,22.485c0.15,0,0.301-0.023,0.447-0.067l4.857-2.506c0.397-0.17,1.311-0.597,1.311-1.7v-7.54
			c0-0.386-0.137-1.305-1.355-1.726l-4.612-2.399l-0.129-0.059c-0.16-0.06-0.328-0.09-0.5-0.09c-0.904,0-1.729,0.871-1.729,1.828
			v12.43C16.147,21.648,16.931,22.485,17.858,22.485z"/>
		<path d="M43.661,60.098c0.039-0.283-0.018-0.582-0.189-0.835l-4.859-7.081c0.121,0.071,0.277,0.073,0.4-0.013
			c0.168-0.116,0.209-0.347,0.094-0.515l-1.688-2.422c-0.113-0.166-0.346-0.207-0.514-0.092c-0.111,0.078-0.162,0.209-0.15,0.336
			l-4.98-7.262V39.05c0.643-0.298,1.094-0.944,1.094-1.698s-0.451-1.4-1.094-1.697v-6.769h5.035c0.584,0,1.16-0.29,1.508-0.759
			c0.307-0.413,0.396-0.924,0.254-1.398l-2.506-4.859c-0.17-0.396-0.598-1.309-1.701-1.309h-2.59v-0.897
			c2.389-0.539,4.18-2.674,4.18-5.223c0-2.955-2.402-5.358-5.357-5.358c-2.953,0-5.357,2.404-5.357,5.358
			c0,2.549,1.791,4.684,4.18,5.223v0.897h-2.59c-0.385,0-1.307,0.135-1.725,1.354l-2.4,4.612l-0.059,0.131
			c-0.172,0.457-0.098,0.967,0.203,1.4c0.354,0.509,0.938,0.826,1.533,0.826h5.035v6.769c-0.644,0.297-1.093,0.943-1.093,1.697
			s0.449,1.399,1.093,1.698v3.165l-4.998,7.281c0.021-0.133-0.031-0.271-0.15-0.355c-0.166-0.115-0.396-0.074-0.514,0.092
			l-1.685,2.422c-0.117,0.168-0.074,0.397,0.092,0.515c0.138,0.096,0.313,0.079,0.437-0.021l-4.879,7.112
			c-0.176,0.254-0.232,0.552-0.191,0.834c-0.963,0.091-1.639,0.292-1.639,0.524c0,0.32,1.256,0.58,2.803,0.58
			c1.549,0,2.803-0.26,2.803-0.58c0-0.223-0.608-0.413-1.496-0.51l9.42-13.728v10.278c0,0.139,0.027,0.268,0.07,0.391
			c-0.996,0.089-1.693,0.293-1.693,0.531c0,0.32,1.257,0.58,2.804,0.58s2.803-0.26,2.803-0.58c0-0.238-0.697-0.442-1.693-0.531
			c0.043-0.123,0.07-0.252,0.07-0.391V46.383l9.42,13.727c-0.887,0.098-1.496,0.289-1.496,0.51c0,0.32,1.254,0.58,2.803,0.58
			c1.547,0,2.803-0.258,2.803-0.58C45.298,60.388,44.626,60.188,43.661,60.098z M30.593,17.441c-1.652,0-2.998-1.346-2.998-2.999
			c0-1.654,1.346-2.999,2.998-2.999c1.654,0,2.998,1.345,2.998,2.999S32.247,17.441,30.593,17.441z"/>
	</g>
</g>
</svg>