<?xml version="1.0" encoding="iso-8859-1"?>
<!-- Uploaded to: SVG Repo, www.svgrepo.com, Generator: SVG Repo Mixer Tools -->
<!DOCTYPE svg PUBLIC "-//W3C//DTD SVG 1.1//EN" "http://www.w3.org/Graphics/SVG/1.1/DTD/svg11.dtd">
<svg fill="white" version="1.1" id="Capa_1" xmlns="http://www.w3.org/2000/svg" xmlns:xlink="http://www.w3.org/1999/xlink"  viewBox="0 0 48.287 48.287"
	 xml:space="preserve">
<g>
	<path d="M37.524,28.559v-3.748c0-2.07-0.952-3.747-2.129-3.747c-1.176,0-2.129,0-2.129,0v7.495c0,4.082-3.319,7.403-7.401,7.403
		h-3.442c-4.082,0-7.404-3.321-7.404-7.403v-7.495H12.89c-1.174,0-2.127,1.677-2.127,3.747c0,2.069,0,3.748,0,3.748
		c0,6.338,5.081,11.498,11.385,11.646v3.825h-1.33c-1.176,0-2.127,0.952-2.127,2.129v2.128h8.777c1.176,0,2.129-0.952,2.129-2.128
		V44.03H26.14v-3.825C32.441,40.057,37.524,34.896,37.524,28.559z"/>
	<path d="M31.68,0H20.862c-2.352,0-4.256,1.905-4.256,4.257v15.788H31.68V0z"/>
	<path d="M16.606,26.782c0,3.524,2.859,6.385,6.385,6.385h2.303c3.528,0,6.387-2.858,6.387-6.385v-4.7H16.606V26.782z"/>
</g>
</svg>