<?xml version="1.0" encoding="iso-8859-1"?>
<!-- Uploaded to: SVG Repo, www.svgrepo.com, Generator: SVG Repo Mixer Tools -->
<!DOCTYPE svg PUBLIC "-//W3C//DTD SVG 1.1//EN" "http://www.w3.org/Graphics/SVG/1.1/DTD/svg11.dtd">
<svg fill="white" version="1.1" id="Capa_1" xmlns="http://www.w3.org/2000/svg" xmlns:xlink="http://www.w3.org/1999/xlink"  viewBox="0 0 56.879 56.879"
	 xml:space="preserve">
<g>
	<path d="M56.09,47.693c0.021-0.136-0.008-0.277-0.09-0.4l-2.332-3.395c0.061,0.034,0.133,0.034,0.193-0.007
		c0.08-0.057,0.1-0.166,0.043-0.246l-0.81-1.161c-0.056-0.08-0.166-0.103-0.246-0.045c-0.054,0.036-0.075,0.1-0.069,0.161
		l-2.392-3.481v-1.519c0.31-0.145,0.522-0.452,0.522-0.813c0-0.36-0.215-0.672-0.522-0.813V11.079
		c0.666-0.233,1.146-0.869,1.146-1.614c0-0.312-0.254-0.565-0.564-0.565s-0.564,0.253-0.564,0.565c0,0.066-0.016,0.129-0.033,0.188
		c-0.062-0.245-0.282-0.428-0.547-0.428h-0.637c-0.092-0.192-0.283-0.327-0.512-0.327s-0.42,0.134-0.514,0.327h-0.424
		c-0.248-0.342-0.646-0.566-1.104-0.566H10.239c-0.453,0-0.854,0.225-1.104,0.566H8.711C8.62,9.033,8.428,8.898,8.2,8.898
		c-0.229,0-0.422,0.134-0.514,0.327H7.051c-0.267,0-0.484,0.182-0.547,0.427c-0.021-0.06-0.035-0.123-0.035-0.188
		c0-0.312-0.252-0.565-0.564-0.565S5.342,9.152,5.342,9.464c0,0.746,0.479,1.38,1.146,1.614V35.97
		c-0.311,0.144-0.522,0.453-0.522,0.814s0.215,0.672,0.522,0.814v1.518l-2.396,3.492c0.01-0.064-0.017-0.131-0.072-0.17
		c-0.082-0.057-0.191-0.037-0.246,0.043l-0.809,1.162c-0.056,0.08-0.035,0.188,0.045,0.246c0.065,0.047,0.147,0.039,0.209-0.011
		l-2.34,3.41c-0.084,0.123-0.111,0.267-0.093,0.4C0.323,47.734,0,47.83,0,47.941c0,0.153,0.604,0.278,1.346,0.278
		c0.742,0,1.344-0.125,1.344-0.278c0-0.105-0.293-0.197-0.719-0.244l4.518-6.582v4.93c0,0.066,0.015,0.128,0.035,0.188
		c-0.479,0.043-0.812,0.141-0.812,0.256c0,0.152,0.602,0.277,1.344,0.277c0.742,0,1.344-0.125,1.344-0.277
		c0-0.115-0.334-0.213-0.811-0.256c0.02-0.061,0.032-0.121,0.032-0.188v-4.93l4.519,6.582c-0.427,0.047-0.72,0.139-0.72,0.244
		c0,0.153,0.604,0.278,1.345,0.278c0.741,0,1.344-0.125,1.344-0.278c0-0.111-0.322-0.207-0.783-0.252
		c0.021-0.136-0.01-0.277-0.094-0.4l-2.33-3.396c0.06,0.035,0.133,0.035,0.191-0.006c0.082-0.057,0.102-0.166,0.045-0.246
		l-0.808-1.162c-0.059-0.079-0.166-0.102-0.245-0.045c-0.056,0.039-0.078,0.101-0.072,0.162l-2.392-3.483v-1.519
		c0.31-0.143,0.523-0.453,0.523-0.813c0-0.361-0.217-0.67-0.523-0.812V11.079c0.375-0.132,0.688-0.389,0.894-0.722h0.356v28.265
		c0,0.754,0.615,1.369,1.369,1.369h36.396c0.756,0,1.369-0.613,1.369-1.369V10.357h0.356c0.203,0.333,0.521,0.59,0.894,0.722v24.893
		c-0.31,0.144-0.522,0.451-0.522,0.812s0.217,0.672,0.522,0.814v1.518l-2.396,3.494c0.01-0.064-0.017-0.131-0.069-0.172
		c-0.08-0.057-0.189-0.035-0.246,0.045l-0.812,1.162c-0.056,0.08-0.033,0.188,0.045,0.246c0.065,0.045,0.149,0.037,0.209-0.01
		l-2.34,3.409c-0.084,0.121-0.109,0.267-0.093,0.4c-0.463,0.043-0.784,0.139-0.784,0.252c0,0.153,0.604,0.276,1.344,0.276
		c0.742,0,1.345-0.125,1.345-0.276c0-0.107-0.291-0.197-0.718-0.244l4.519-6.584v4.93c0,0.066,0.015,0.13,0.033,0.188
		c-0.479,0.043-0.813,0.141-0.813,0.256c0,0.154,0.604,0.277,1.346,0.277c0.74,0,1.346-0.123,1.346-0.277
		c0-0.115-0.337-0.213-0.812-0.256c0.021-0.059,0.032-0.121,0.032-0.188v-4.93l4.519,6.584c-0.426,0.047-0.717,0.137-0.717,0.244
		c0,0.153,0.602,0.276,1.344,0.276s1.344-0.125,1.344-0.276C56.877,47.834,56.553,47.738,56.09,47.693z"/>
</g>
</svg>