<?xml version="1.0" encoding="iso-8859-1"?>
<!-- Uploaded to: SVG Repo, www.svgrepo.com, Generator: SVG Repo Mixer Tools -->
<!DOCTYPE svg PUBLIC "-//W3C//DTD SVG 1.1//EN" "http://www.w3.org/Graphics/SVG/1.1/DTD/svg11.dtd">
<svg fill="white" version="1.1" id="Capa_1" xmlns="http://www.w3.org/2000/svg" xmlns:xlink="http://www.w3.org/1999/xlink" viewBox="0 0 49.193 49.193"
	 xml:space="preserve">
<g>
	<g>
		<path d="M43.86,0.203v1.021c0,0.146-0.117,0.263-0.264,0.263h-2.525c-0.146,0-0.264-0.117-0.264-0.263V0h-2.016v7.148
			c0,1.347-1.092,2.438-2.438,2.438H12.839c-1.346,0-2.438-1.092-2.438-2.438V0H8.384v1.224c0,0.146-0.116,0.263-0.262,0.263H5.599
			c-0.146,0-0.263-0.117-0.263-0.263V0.203C4.16,0.646,3.321,1.777,3.321,3.107v38.516v0.471v3.992c0,1.33,0.838,2.461,2.014,2.902
			v-1.021c0-0.145,0.117-0.262,0.263-0.262h2.524c0.146,0,0.262,0.117,0.262,0.262v1.225h2.017v-7.098v-0.471v-0.197
			c0-1.348,1.092-2.438,2.438-2.438h7.416l0.205-4.021h-7.621c-1.346,0-2.438-1.092-2.438-2.438V16.043
			c0-1.347,1.092-2.438,2.438-2.438h23.515c1.348,0,2.438,1.092,2.438,2.438v16.488c0,1.347-1.092,2.439-2.438,2.439h-7.619
			l0.203,4.02h7.416c1.348,0,2.438,1.09,2.438,2.438v0.197v0.471v7.098h2.015v-1.225c0-0.145,0.116-0.262,0.265-0.262h2.524
			c0.146,0,0.265,0.117,0.265,0.262v1.02c1.176-0.44,2.012-1.571,2.012-2.901v-3.991v-0.472V3.107
			C45.874,1.777,45.036,0.645,43.86,0.203z M8.388,44.854c0,0.146-0.117,0.262-0.263,0.262H5.601c-0.146,0-0.263-0.116-0.263-0.262
			v-1.771c0-0.146,0.117-0.261,0.263-0.261h2.524c0.146,0,0.263,0.115,0.263,0.261V44.854z M8.388,40.307
			c0,0.146-0.117,0.264-0.263,0.264H5.601c-0.146,0-0.263-0.118-0.263-0.264v-1.77c0-0.146,0.117-0.262,0.263-0.262h2.524
			c0.146,0,0.263,0.115,0.263,0.262V40.307z M8.388,35.422c0,0.145-0.117,0.262-0.263,0.262H5.601c-0.146,0-0.263-0.117-0.263-0.262
			V33.65c0-0.146,0.117-0.262,0.263-0.262h2.524c0.146,0,0.263,0.115,0.263,0.262V35.422z M8.388,30.537
			c0,0.145-0.117,0.262-0.263,0.262H5.601c-0.146,0-0.263-0.119-0.263-0.262v-1.771c0-0.145,0.117-0.262,0.263-0.262h2.524
			c0.146,0,0.263,0.117,0.263,0.262V30.537z M8.388,25.652c0,0.146-0.117,0.263-0.263,0.263H5.601c-0.146,0-0.263-0.119-0.263-0.263
			v-1.771c0-0.146,0.117-0.262,0.263-0.262h2.524c0.146,0,0.263,0.117,0.263,0.262V25.652z M8.388,20.765
			c0,0.146-0.117,0.263-0.263,0.263H5.601c-0.146,0-0.263-0.117-0.263-0.263v-1.771c0-0.146,0.117-0.263,0.263-0.263h2.524
			c0.146,0,0.263,0.117,0.263,0.263V20.765z M8.388,15.881c0,0.145-0.117,0.262-0.263,0.262H5.601c-0.146,0-0.263-0.117-0.263-0.262
			V14.11c0-0.146,0.117-0.264,0.263-0.264h2.524c0.146,0,0.263,0.117,0.263,0.264V15.881z M8.388,10.996
			c0,0.144-0.117,0.262-0.263,0.262H5.601c-0.146,0-0.263-0.118-0.263-0.262V9.224c0-0.144,0.117-0.262,0.263-0.262h2.524
			c0.146,0,0.263,0.118,0.263,0.262V10.996z M8.388,6.11c0,0.146-0.117,0.262-0.263,0.262H5.601c-0.146,0-0.263-0.117-0.263-0.262
			V4.339c0-0.146,0.117-0.263,0.263-0.263h2.524c0.146,0,0.263,0.118,0.263,0.263V6.11z M43.86,44.854
			c0,0.146-0.117,0.262-0.264,0.262h-2.525c-0.146,0-0.264-0.116-0.264-0.262v-1.771c0-0.146,0.115-0.261,0.264-0.261h2.525
			c0.146,0,0.264,0.115,0.264,0.261V44.854z M43.86,40.307c0,0.146-0.117,0.264-0.264,0.264h-2.525
			c-0.146,0-0.264-0.118-0.264-0.264v-1.77c0-0.146,0.115-0.262,0.264-0.262h2.525c0.146,0,0.264,0.115,0.264,0.262V40.307z
			 M43.86,35.422c0,0.145-0.117,0.262-0.264,0.262h-2.525c-0.146,0-0.264-0.117-0.264-0.262V33.65c0-0.146,0.115-0.262,0.264-0.262
			h2.525c0.146,0,0.264,0.115,0.264,0.262V35.422z M43.86,30.537c0,0.145-0.117,0.262-0.264,0.262h-2.525
			c-0.146,0-0.264-0.119-0.264-0.262v-1.771c0-0.145,0.115-0.262,0.264-0.262h2.525c0.146,0,0.264,0.117,0.264,0.262V30.537z
			 M43.86,25.652c0,0.146-0.117,0.263-0.264,0.263h-2.525c-0.146,0-0.264-0.119-0.264-0.263v-1.771c0-0.146,0.115-0.262,0.264-0.262
			h2.525c0.146,0,0.264,0.117,0.264,0.262V25.652z M43.86,20.765c0,0.146-0.117,0.263-0.264,0.263h-2.525
			c-0.146,0-0.264-0.117-0.264-0.263v-1.771c0-0.146,0.115-0.263,0.264-0.263h2.525c0.146,0,0.264,0.117,0.264,0.263V20.765z
			 M43.86,15.881c0,0.145-0.117,0.262-0.264,0.262h-2.525c-0.146,0-0.264-0.117-0.264-0.262V14.11c0-0.146,0.115-0.264,0.264-0.264
			h2.525c0.146,0,0.264,0.117,0.264,0.264V15.881z M43.86,10.996c0,0.144-0.117,0.262-0.264,0.262h-2.525
			c-0.146,0-0.264-0.118-0.264-0.262V9.224c0-0.144,0.115-0.262,0.264-0.262h2.525c0.146,0,0.264,0.118,0.264,0.262V10.996z
			 M43.86,6.11c0,0.146-0.117,0.262-0.264,0.262h-2.525c-0.146,0-0.264-0.117-0.264-0.262V4.339c0-0.146,0.115-0.263,0.264-0.263
			h2.525c0.146,0,0.264,0.118,0.264,0.263V6.11z"/>
		<path d="M33.212,24.599c0-4.75-3.861-8.612-8.611-8.612s-8.613,3.862-8.613,8.612c0,3.704,2.354,6.86,5.643,8.075
			c0.174,0.064,0.351,0.117,0.527,0.17c-0.015,0.088-0.027,0.174-0.029,0.264l-0.063,1.258l-0.431,8.406v0.049
			c0,1.461,1.709,2.394,2.888,2.394h0.163c1.177,0,2.888-0.933,2.888-2.392l-0.433-8.457l-0.063-1.258
			c0-0.09-0.017-0.176-0.027-0.266c0.177-0.051,0.354-0.104,0.525-0.168C30.858,31.461,33.212,28.305,33.212,24.599z M24.599,30.896
			c-0.972,0-1.892-0.229-2.713-0.623c-2.115-1.018-3.584-3.174-3.584-5.673c0-3.472,2.825-6.297,6.297-6.297
			c3.475,0,6.297,2.825,6.297,6.297c0,2.5-1.467,4.657-3.582,5.673C26.489,30.668,25.571,30.896,24.599,30.896z"/>
	</g>
</g>
</svg>